<?xml version="1.0" encoding="UTF-8"?>
<!DOCTYPE svg PUBLIC "-//W3C//DTD SVG 1.1//EN" "http://www.w3.org/Graphics/SVG/1.1/DTD/svg11.dtd">
<!-- Creator: CorelDRAW 2020 (64-Bit) -->
<svg xmlns="http://www.w3.org/2000/svg" xml:space="preserve" width="1058px" height="837px" version="1.1" style="shape-rendering:geometricPrecision; text-rendering:geometricPrecision; image-rendering:optimizeQuality; fill-rule:evenodd; clip-rule:evenodd"
viewBox="0 0 728.89 576.63"
 xmlns:xlink="http://www.w3.org/1999/xlink"
 xmlns:xodm="http://www.corel.com/coreldraw/odm/2003">
 <defs>
  <style type="text/css">
   <![CDATA[
    .fil0 {fill:#D2D3D5;fill-rule:nonzero}
   ]]>
  </style>
   <clipPath id="id0">
    <rect x="28.27" width="555.45" height="438.16"/>
   </clipPath>
 </defs>
 <g id="Capa_x0020_1">
  <metadata id="CorelCorpID_0Corel-Layer"/>
  <g style="clip-path:url(#id0)">
   <image x="28.27" y="0" width="555.45" height="438.16" xlink:href="logo_Images\logo_ImgID1.png"/>
  </g>
  <path class="fil0" d="M31.95 534.78l7.72 3.25c2.49,1.09 4.53,1.83 6.13,2.2 1.59,0.39 3.09,0.58 4.55,0.58 6.67,0 12.05,-4.37 16.08,-13.09 4.06,-8.73 6.07,-18.1 6.07,-28.08 0,-10.56 -2.55,-19.07 -7.67,-25.51 -5.11,-6.44 -11.82,-9.65 -20.08,-9.65 -6.62,0 -12.84,2.38 -18.63,7.14 -5.8,4.75 -8.7,9.78 -8.7,15.09 0,3.97 1.66,6.67 5.02,8.13 1.42,0.68 2.14,1.59 2.14,2.7 0,1.17 -1.58,2.43 -4.73,3.8 -3.15,1.36 -5.09,2.04 -5.77,2.04 -2.06,0 -3.87,-1.19 -5.43,-3.58 -1.57,-2.41 -2.35,-5.04 -2.35,-7.95 0,-7.67 4.01,-14.96 12.02,-21.86 8.03,-6.89 18.47,-10.33 31.33,-10.33 12.29,0 22.11,3.37 29.42,10.15 7.31,6.77 10.97,15.83 10.97,27.19 0,8.67 -2.26,16.9 -6.79,24.68 -4.51,7.81 -10.6,13.98 -18.26,18.55 -7.66,4.59 -15.77,6.88 -24.33,6.88 -7.21,0 -13.92,-1.57 -20.16,-4.7 -5.02,3.13 -9.38,4.7 -13.09,4.7 -2.08,0 -3.85,-0.6 -5.27,-1.81 -1.42,-1.2 -2.14,-2.66 -2.14,-4.39 0,-2.8 1.46,-5.17 4.41,-7.1 2.92,-1.92 6.6,-2.88 11.03,-2.88 3.13,0 6.13,0.49 9,1.5 2.53,-2.08 4.26,-4.59 5.18,-7.53 0.93,-2.93 1.84,-8.12 2.76,-15.55 0.93,-7.43 2.39,-13.25 4.37,-17.52 1.97,-4.24 4.9,-7.8 8.77,-10.66 3.85,-2.86 7.74,-4.53 11.67,-4.96l2.35 3.21c-2.5,2.51 -4.37,5.09 -5.58,7.68 -1.24,2.59 -2.37,8.21 -3.4,16.82 -1.03,8.6 -2.94,15.07 -5.72,19.39 -2.8,4.32 -7.11,8.13 -12.89,11.47z"/>
  <path id="1" class="fil0" d="M138.07 532.41c-5.1,5.02 -9.67,8.73 -13.75,11.12 -4.06,2.38 -8.54,3.58 -13.44,3.58 -5.46,0 -9.86,-1.75 -13.22,-5.25 -3.35,-3.52 -5.04,-8.13 -5.04,-13.84 0,-8.54 2.96,-16.26 8.87,-23.18 5.91,-6.89 12.45,-10.35 19.66,-10.35 3.73,0 6.73,0.97 8.98,2.9 2.24,1.92 3.37,4.45 3.37,7.6 0,8.32 -8.81,15.07 -26.45,20.26 1.6,7.9 5.8,11.85 12.58,11.85 2.63,0 5.16,-0.72 7.57,-2.14 2.39,-1.42 6.03,-4.57 10.87,-9.47l0 6.92zm-31.5 -11.24c10.22,-2.88 15.32,-8.21 15.32,-15.98 0,-3.85 -1.4,-5.76 -4.18,-5.76 -2.63,0 -5.15,2.02 -7.55,6.03 -2.39,4.04 -3.59,9.27 -3.59,15.71z"/>
  <path id="2" class="fil0" d="M156.64 496.96c2.78,-0.72 5.58,-1.32 8.4,-1.77 2.8,-0.47 4.49,-0.7 5.06,-0.7 0.39,0 0.6,0.16 0.6,0.47 0,0.62 -0.16,1.24 -0.49,1.88 -0.66,1.85 -0.99,3.62 -0.99,5.29 0.04,2.1 1.25,4.94 3.66,8.56 2.41,3.62 3.63,6.98 3.63,10.09 0,6.13 -2.95,12.06 -8.86,17.76 -5.88,5.71 -12,8.57 -18.32,8.57 -2.74,0 -5.23,-0.72 -7.49,-2.16 -2.24,-1.44 -3.38,-2.99 -3.38,-4.64 0,-0.96 1.11,-2.8 3.36,-5.47 2.22,-2.7 3.83,-4.04 4.8,-4.04 1.27,0 2.42,1.65 3.43,4.94 1.01,3.3 2.74,4.94 5.19,4.94 2.47,0 4.78,-1.13 6.92,-3.41 2.16,-2.29 3.23,-4.74 3.23,-7.37 0.04,-2.53 -1.32,-5.91 -4.06,-10.11 -2.75,-4.22 -4.57,-7.74 -5.45,-10.6 -4.67,7.51 -10.58,15.21 -17.75,23.1l-1.4 0 0 -5.44c9.86,-10.48 16.49,-20.44 19.91,-29.89z"/>
  <path id="3" class="fil0" d="M216.63 470.9c0,9.63 -3.56,14.45 -10.67,14.45 -3.45,0 -6.4,-1.05 -8.85,-3.13 2.33,-3.54 4.14,-7.51 5.44,-11.94 3.17,1.98 5.72,2.97 7.63,2.97 2.17,0 4.33,-0.79 6.45,-2.35zm1.23 61.51c-9.4,9.8 -16.42,14.7 -21.1,14.7 -2.57,0 -4.73,-1.32 -6.5,-3.95 -1.77,-2.64 -2.66,-5.93 -2.66,-9.91 0,-8.56 2.88,-20.42 8.65,-35.57l15.33 -3.19 0.73 0 -6.04 18.86c-2.49,7.8 -3.72,13.36 -3.72,16.69 0,1.34 0.29,2.41 0.86,3.23 0.6,0.83 1.32,1.24 2.2,1.24 1.59,0 3.15,-0.56 4.74,-1.69 1.58,-1.13 4.1,-3.58 7.51,-7.33l0 6.92z"/>
  <path id="4" class="fil0" d="M277.05 532.41c-9.29,9.8 -17.25,14.7 -23.88,14.7 -2.68,0 -4.86,-0.95 -6.51,-2.84 -1.64,-1.9 -2.47,-4.45 -2.47,-7.62 0,-4.32 1.77,-10.93 5.31,-19.84 1.9,-4.8 2.84,-7.85 2.84,-9.15 0,-1.29 -0.51,-1.93 -1.52,-1.93 -0.55,0 -1.3,0.29 -2.22,0.84 -0.85,0.58 -1.83,1.36 -2.97,2.37 -1,0.93 -2.12,2.06 -3.37,3.38 -1.07,1.13 -2.25,2.43 -3.5,3.87l-3.38 3.93c-1.48,1.83 -2.41,3.75 -2.78,5.76 -0.59,3.42 -0.99,6.57 -1.19,9.43 -0.12,2.14 -0.19,5.02 -0.19,8.65l-13.3 3.15c-0.43,-5.44 -0.65,-9.47 -0.65,-12.13 0,-6.46 0.76,-12.6 2.26,-18.38 1.5,-5.79 3.91,-12.29 7.25,-19.52l14.7 -2.84c-3.09,8.24 -5.13,14.76 -6.1,19.54 6.59,-7.35 11.84,-12.46 15.71,-15.28 3.89,-2.84 7.33,-4.26 10.35,-4.26 2.04,0 3.75,0.78 5.13,2.33 1.36,1.54 2.04,3.48 2.04,5.8 0,3.85 -1.73,10.24 -5.21,19.15 -2.39,6.11 -3.58,10.09 -3.58,11.92 0,2.45 0.99,3.66 2.96,3.66 2.95,0 7.7,-3.87 14.27,-11.61l0 6.92z"/>
  <path id="5" class="fil0" d="M336.21 532.29c-5.1,5.35 -11.2,9.3 -18.3,11.83 -3.33,10.42 -7.57,18.43 -12.7,24.07 -5.13,5.62 -10.56,8.44 -16.3,8.44 -3.15,0 -5.69,-0.99 -7.6,-2.97 -1.94,-1.95 -2.9,-4.55 -2.9,-7.76 0,-4.3 1.91,-8.17 5.76,-11.59 3.83,-3.41 10.36,-6.71 19.56,-9.88l2.59 -11.9c-3.85,4.35 -7.18,7.52 -10,9.56 -2.82,2.03 -5.64,3.04 -8.51,3.04 -3.33,0 -6.05,-1.56 -8.19,-4.71 -2.12,-3.15 -3.19,-7.23 -3.19,-12.27 0,-8.22 3.13,-15.94 9.39,-23.12 6.26,-7.18 12.91,-10.79 19.97,-10.79 3.89,0 7.34,1.65 10.37,4.94 1.81,-0.66 4.18,-1.64 7.06,-2.96l4.31 -1.98 1.37 0c-1.58,4.78 -2.8,9.43 -3.64,13.96l-5.7 30.39c5.41,-2.06 10.95,-6.47 16.65,-13.22l0 6.92zm-38.8 1.97c2.84,0 5.37,-1.69 7.59,-5.08 2.21,-3.38 3.94,-7.68 5.15,-12.89 1.24,-5.19 1.83,-8.81 1.83,-10.83 0,-1.89 -0.45,-3.46 -1.4,-4.67 -0.94,-1.24 -2.12,-1.85 -3.54,-1.85 -4.26,0 -7.97,2.88 -11.16,8.64 -3.17,5.77 -4.75,11.63 -4.75,17.6 0,2.78 0.58,5.01 1.71,6.63 1.15,1.63 2.67,2.45 4.57,2.45zm5.06 15.48c-12.99,4.66 -19.49,10.05 -19.49,16.16 0,1.81 0.53,3.3 1.62,4.43 1.09,1.15 2.47,1.73 4.16,1.73 2.9,0 5.42,-1.83 7.56,-5.5 2.12,-3.66 4.18,-9.26 6.15,-16.82z"/>
  <path id="6" class="fil0" d="M416 532.41c-4.15,4.69 -8.27,8.32 -12.37,10.87 -4.07,2.55 -7.72,3.83 -10.91,3.83 -1.52,0 -3.6,-0.58 -6.26,-1.73 -1.71,8.81 -3.21,18.32 -4.53,28.53 -4.18,0.56 -9.22,1.42 -15.09,2.59 1.32,-11.03 3.59,-25.36 6.82,-42.96 -0.45,-0.74 -1.26,-2.61 -2.39,-5.6l-4.12 4.47 -1.42 0 0 -5.44 11.59 -12.06c2.14,-10.74 3.89,-18.53 5.27,-23.36 1.36,-4.84 3.28,-10.17 5.73,-16.04 2.45,-5.85 3.99,-9.22 4.63,-10.09 0.66,-0.86 2.2,-1.69 4.67,-2.47 2.47,-0.78 5.13,-1.52 7.93,-2.24 2.82,-0.7 4.32,-1.05 4.53,-1.05 1.52,0 2.77,0.99 3.74,2.98 0.97,1.98 1.44,4.61 1.44,7.87 0,5.62 -1.48,11.03 -4.44,16.26 -2.97,5.23 -8.57,11.65 -16.8,19.29l-5.09 25.32c1.98,4.22 4.9,6.34 8.83,6.34 5.6,0 11.68,-4.08 18.24,-12.23l0 6.92zm-20.23 -34.48c4.69,-4.12 8.38,-8.52 11.05,-13.24 2.66,-4.73 4,-9.08 4,-13.07 0,-1.69 -0.31,-3.07 -0.93,-4.16 -0.64,-1.09 -1.4,-1.63 -2.33,-1.63 -1.77,0 -3.58,2.31 -5.41,6.94 -1.83,4.61 -3.95,12.99 -6.38,25.16z"/>
  <path id="7" class="fil0" d="M470.1 532.43c-2.03,1.85 -4.03,3.15 -5.95,3.91 -1.93,0.76 -3.45,1.13 -4.57,1.13 -2.88,0 -5.76,-1.13 -8.6,-3.37 -5.79,8.66 -12.43,13.01 -19.91,13.01 -4.67,0 -8.44,-1.75 -11.34,-5.27 -2.9,-3.52 -4.34,-8.18 -4.34,-13.98 0,-9.22 3.25,-17.11 9.77,-23.72 6.51,-6.6 14.29,-9.9 23.35,-9.9 3.42,0 5.91,0.37 7.49,1.13 1.61,0.75 2.58,1.63 2.95,2.64 0.35,1.03 0.53,2.31 0.53,3.85 0,7.6 -2.06,16.92 -6.15,27.96 2.03,1.89 4.2,2.84 6.44,2.84 2.68,0 6.13,-2.39 10.33,-7.17l0 6.94zm-19.84 -33.99c-0.62,-0.25 -1.48,-0.37 -2.6,-0.37 -5.22,0 -9.32,2.76 -12.29,8.3 -2.94,5.51 -4.42,11.98 -4.42,19.37 0,4.1 0.64,7.29 1.93,9.55 1.28,2.29 3.07,3.42 5.38,3.42 2.84,0 5.95,-2.64 9.28,-7.93 -3.81,-4.79 -5.72,-9.96 -5.72,-15.5 0,-6.5 2.82,-12.12 8.44,-16.84z"/>
  <path id="8" class="fil0" d="M515.19 532.41c-10.11,9.8 -17.89,14.7 -23.37,14.7 -2.45,0 -4.53,-1.03 -6.21,-3.11 -1.69,-2.06 -2.54,-4.63 -2.54,-7.68 0,-5.68 3.03,-13.28 9.1,-22.79 -2.96,1.52 -6.21,2.6 -9.73,3.19 -2.62,4.86 -6.72,10.09 -12.32,15.69l-1.37 0 0 -5.44c3.15,-3.29 5.97,-6.83 8.5,-10.62 -3.44,-1.52 -5.17,-3.76 -5.17,-6.77 0,-3.07 1.05,-6.36 3.15,-9.84 2.12,-3.5 5.02,-5.25 8.71,-5.25 3.13,0 4.69,1.61 4.69,4.8 0,2.51 -0.9,6.09 -2.72,10.76 6.67,-0.72 12.52,-5.82 17.5,-15.31l5.48 -0.25 -5.58 15.44c-2.33,6.5 -3.83,10.93 -4.51,13.28 -0.68,2.36 -1.03,4.44 -1.03,6.26 0,1.68 0.39,3.02 1.18,4.03 0.78,1.01 1.83,1.5 3.17,1.5 1.44,0 2.82,-0.49 4.15,-1.46 1.32,-0.97 4.31,-3.64 8.92,-8.05l0 6.92z"/>
  <path id="9" class="fil0" d="M610.44 532.29c-5.11,4.96 -13.26,10.02 -24.46,15.21 -3.72,10.62 -7.94,18.11 -12.6,22.52 -4.67,4.41 -9.53,6.61 -14.59,6.61 -2.57,0 -4.63,-0.78 -6.18,-2.35 -1.54,-1.56 -2.32,-3.66 -2.32,-6.28 0,-7.9 7.24,-15.09 21.76,-21.51l3.68 -13.01c-7.6,8.5 -14.26,12.76 -20.01,12.76 -3.11,0 -5.6,-1.27 -7.51,-3.8 -1.92,-2.54 -2.86,-5.93 -2.86,-10.15 0,-6.1 1.31,-12.62 3.95,-19.6l5.76 -15.36 17.48 -3.07 -7.49 17.95c-3.42,8.65 -5.17,15.18 -5.25,19.58 0,3.63 1.23,5.44 3.7,5.44 2.52,0 5.38,-2.02 8.59,-6.06 3.21,-4.01 5.91,-8.97 8.09,-14.86l6.89 -18.98 16.41 -3.09 -15.69 47.29c9.21,-4.22 16.76,-9.61 22.65,-16.16l0 6.92zm-40.14 20.17c-4.94,2.2 -8.75,4.69 -11.43,7.45 -2.67,2.74 -4.01,5.46 -4.01,8.11 0,2.7 1.15,4.04 3.43,4.04 4.47,0 8.47,-6.53 12.01,-19.6z"/>
  <path id="10" class="fil0" d="M664.54 532.43c-2.04,1.85 -4.03,3.15 -5.95,3.91 -1.93,0.76 -3.46,1.13 -4.57,1.13 -2.88,0 -5.76,-1.13 -8.6,-3.37 -5.79,8.66 -12.44,13.01 -19.91,13.01 -4.67,0 -8.44,-1.75 -11.34,-5.27 -2.91,-3.52 -4.35,-8.18 -4.35,-13.98 0,-9.22 3.25,-17.11 9.78,-23.72 6.51,-6.6 14.29,-9.9 23.34,-9.9 3.42,0 5.91,0.37 7.5,1.13 1.6,0.75 2.57,1.63 2.94,2.64 0.35,1.03 0.54,2.31 0.54,3.85 0,7.6 -2.06,16.92 -6.16,27.96 2.04,1.89 4.2,2.84 6.45,2.84 2.67,0 6.13,-2.39 10.33,-7.17l0 6.94zm-19.84 -33.99c-0.62,-0.25 -1.49,-0.37 -2.6,-0.37 -5.23,0 -9.32,2.76 -12.29,8.3 -2.94,5.51 -4.42,11.98 -4.42,19.37 0,4.1 0.63,7.29 1.93,9.55 1.28,2.29 3.07,3.42 5.37,3.42 2.84,0 5.95,-2.64 9.29,-7.93 -3.81,-4.79 -5.73,-9.96 -5.73,-15.5 0,-6.5 2.83,-12.12 8.45,-16.84z"/>
  <path id="11" class="fil0" d="M728.89 532.41c-5.31,5.02 -9.73,8.73 -13.32,11.12 -3.58,2.38 -6.79,3.58 -9.65,3.58 -3.17,0 -5.6,-1.28 -7.31,-3.81 -1.71,-2.53 -2.57,-5.97 -2.57,-10.33 -4.41,4.83 -8.38,8.39 -11.86,10.7 -3.5,2.29 -6.92,3.44 -10.25,3.44 -3.05,0 -5.52,-1.26 -7.35,-3.79 -1.85,-2.53 -2.78,-5.95 -2.78,-10.29 0,-8.34 2.82,-20.12 8.44,-35.33l16.22 -3.25c-6.69,19.33 -10.11,31.72 -10.21,37.16 0,3.85 1.46,5.76 4.37,5.76 2.12,0 4.71,-1.69 7.84,-5.06 3.11,-3.4 5.06,-6.36 5.82,-8.88l7.91 -25.73 16.43 -3.21c-3.79,12.06 -6.41,20.56 -7.83,25.44 -1.4,4.9 -2.12,8.34 -2.12,10.32 0,3.76 1.3,5.64 3.87,5.64 2.08,0 5.19,-1.9 9.29,-5.68l5.06 -4.72 0 6.92z"/>
 </g>
</svg>
