<?xml version="1.0" encoding="UTF-8"?>
<!DOCTYPE svg PUBLIC "-//W3C//DTD SVG 1.1//EN" "http://www.w3.org/Graphics/SVG/1.1/DTD/svg11.dtd">
<!-- Creator: CorelDRAW 2020 (64-Bit) -->
<svg xmlns="http://www.w3.org/2000/svg" xml:space="preserve" width="250px" height="150px" version="1.1" style="shape-rendering:geometricPrecision; text-rendering:geometricPrecision; image-rendering:optimizeQuality; fill-rule:evenodd; clip-rule:evenodd"
viewBox="0 0 99.05 59.43"
 xmlns:xlink="http://www.w3.org/1999/xlink"
 xmlns:xodm="http://www.corel.com/coreldraw/odm/2003">
 <defs>
  <style type="text/css">
   <![CDATA[
    .fil0 {fill:none}
    .fil16 {fill:#FEFEFE;fill-rule:nonzero}
    .fil29 {fill:#F37A4B;fill-rule:nonzero}
    .fil37 {fill:#F16A6A;fill-rule:nonzero}
    .fil28 {fill:#EA6737;fill-rule:nonzero}
    .fil35 {fill:#F7DD5A;fill-rule:nonzero}
    .fil20 {fill:#E8E7E8;fill-rule:nonzero}
    .fil34 {fill:#E7CB42;fill-rule:nonzero}
    .fil5 {fill:#E1BCA4;fill-rule:nonzero}
    .fil17 {fill:#DEB19F;fill-rule:nonzero}
    .fil3 {fill:#D8AF98;fill-rule:nonzero}
    .fil36 {fill:#D1E9F1;fill-rule:nonzero}
    .fil14 {fill:#D2D4D5;fill-rule:nonzero}
    .fil22 {fill:#CEA996;fill-rule:nonzero}
    .fil19 {fill:#BFC0C1;fill-rule:nonzero}
    .fil15 {fill:#A9ACAF;fill-rule:nonzero}
    .fil27 {fill:#9EA7B2;fill-rule:nonzero}
    .fil18 {fill:#61544D;fill-rule:nonzero}
    .fil25 {fill:#3C2F2D;fill-rule:nonzero}
    .fil1 {fill:#70888D;fill-rule:nonzero}
    .fil33 {fill:#606263;fill-rule:nonzero}
    .fil2 {fill:#65797C;fill-rule:nonzero}
    .fil30 {fill:#33B8EA;fill-rule:nonzero}
    .fil10 {fill:#4D4C4E;fill-rule:nonzero}
    .fil7 {fill:#3D3D3D;fill-rule:nonzero}
    .fil9 {fill:#363435;fill-rule:nonzero}
    .fil32 {fill:#4D5056;fill-rule:nonzero}
    .fil8 {fill:#353535;fill-rule:nonzero}
    .fil6 {fill:#333333;fill-rule:nonzero}
    .fil31 {fill:#23A8DC;fill-rule:nonzero}
    .fil4 {fill:#292929;fill-rule:nonzero}
    .fil26 {fill:#3C5C74;fill-rule:nonzero}
    .fil24 {fill:#395363;fill-rule:nonzero}
    .fil23 {fill:#364D59;fill-rule:nonzero}
    .fil11 {fill:#2D363E;fill-rule:nonzero}
    .fil12 {fill:#2C3D4C;fill-rule:nonzero}
    .fil21 {fill:#2F4C66;fill-rule:nonzero}
    .fil13 {fill:#2C3E58;fill-rule:nonzero}
   ]]>
  </style>
 </defs>
 <g id="Capa_x0020_1">
  <metadata id="CorelCorpID_0Corel-Layer"/>
  <polygon class="fil0" points="0,0 99.05,0 99.05,59.43 0,59.43 "/>
  <g id="_2068034865040">
   <path class="fil1" d="M27.42 27.7c0.63,-1.04 1.26,-1.53 1.84,-0.6 0.08,0.14 0.17,0.61 0.19,0.99 0.15,2.78 0.13,5.27 -0.03,7.48 -0.02,0.25 -0.11,0.54 -0.2,0.64 -0.59,0.63 -1.1,1.01 -1.53,0.5 -0.08,-0.09 -0.15,-0.42 -0.18,-0.7 -0.22,-2.42 -0.33,-4.89 -0.28,-7.37 0,-0.34 0.09,-0.77 0.19,-0.94z"/>
   <polygon class="fil2" points="32.58,40.62 35.42,40.62 35.42,39.22 32.58,39.22 "/>
   <path class="fil1" d="M38.88 39.15l0 0.61 -10.11 0 0 -0.61c0,-0.26 0.21,-0.47 0.47,-0.47l9.18 0c0.26,0 0.46,0.21 0.46,0.47z"/>
   <polygon class="fil2" points="33.58,45.33 34.23,45.33 34.23,39.88 33.58,39.88 "/>
   <polygon class="fil2" points="33.14,47.22 34.67,47.22 34.67,41.97 33.14,41.97 "/>
   <polygon class="fil2" points="32.58,47.95 35.17,47.95 35.17,46.71 32.58,46.71 "/>
   <polygon class="fil2" points="34.23,47.33 34.72,47.55 34.73,47.33 39.37,47.91 39.93,49.15 39.37,49.15 38.88,48.49 36.43,48.34 38.17,49.15 38.7,49.98 38.11,50.27 37.68,49.66 33.9,47.95 "/>
   <path class="fil2" d="M33.25 47.47l0.43 -0.32 0.45 0.53 -3.25 2.37 -0.38 0.79 -0.64 -0.16 0.35 -0.93c0,0 2.58,-1.79 3.04,-2.29l0 0.01z"/>
   <path class="fil2" d="M29.22 47.91l4.64 -0.58 0.02 0.22c-0.56,0.39 -1.21,0.42 -1.84,0.62l-2.33 0.32 -0.49 0.66 -0.56 0 0.56 -1.24z"/>
   <path class="fil2" d="M39.01 49.41c0,0.31 0.25,0.56 0.56,0.56 0.31,0 0.56,-0.25 0.56,-0.56 0,-0.31 -0.25,-0.56 -0.56,-0.56 -0.31,0 -0.56,0.25 -0.56,0.56z"/>
   <path class="fil2" d="M37.65 50.27c0,0.4 0.32,0.72 0.72,0.72 0.39,0 0.71,-0.32 0.71,-0.72 0,-0.39 -0.32,-0.71 -0.71,-0.71 -0.4,0 -0.72,0.32 -0.72,0.71z"/>
   <path class="fil2" d="M29.53 50.99c0,0.39 0.32,0.71 0.72,0.71 0.39,0 0.71,-0.32 0.71,-0.71 0,-0.4 -0.32,-0.72 -0.71,-0.72 -0.4,0 -0.72,0.32 -0.72,0.72z"/>
   <path class="fil2" d="M28.62 49.15c0,0.29 0.24,0.53 0.53,0.53 0.29,0 0.53,-0.24 0.53,-0.53 0,-0.3 -0.24,-0.53 -0.53,-0.53 -0.29,0 -0.53,0.23 -0.53,0.53z"/>
   <path class="fil1" d="M71.22 25.71c-1.46,-1.19 -2.83,-1.83 -4.07,-1.24 -0.18,0.09 -0.38,0.46 -0.44,0.78 -0.42,2.44 -0.51,4.89 -0.25,7.33 0.03,0.29 0.24,0.69 0.45,0.87 1.43,1.23 2.77,2.14 3.93,1.88 0.19,-0.04 0.4,-0.39 0.46,-0.71 0.48,-2.73 0.66,-5.38 0.43,-7.93 -0.03,-0.33 -0.26,-0.78 -0.51,-0.98z"/>
   <polygon class="fil2" points="63.4,39.5 66.23,39.5 66.23,38.1 63.4,38.1 "/>
   <path class="fil1" d="M59.93 38.02l0 0.62 10.11 0 0 -0.62c0,-0.25 -0.21,-0.46 -0.46,-0.46l-9.18 0c-0.26,0 -0.47,0.21 -0.47,0.46z"/>
   <polygon class="fil2" points="64.58,44.21 65.24,44.21 65.24,38.76 64.58,38.76 "/>
   <polygon class="fil2" points="64.15,46.11 65.68,46.11 65.68,40.85 64.15,40.85 "/>
   <polygon class="fil2" points="63.65,46.83 66.23,46.83 66.23,45.6 63.65,45.6 "/>
   <polygon class="fil2" points="64.58,46.21 64.1,46.44 64.09,46.21 59.45,46.8 58.88,48.03 59.45,48.03 59.93,47.38 62.39,47.23 60.65,48.03 60.11,48.87 60.7,49.16 61.14,48.55 64.91,46.83 "/>
   <path class="fil2" d="M65.57 46.35l-0.43 -0.32 -0.45 0.53 3.25 2.38 0.37 0.79 0.64 -0.16 -0.35 -0.93c0,0 -2.57,-1.8 -3.03,-2.3l0 0.01z"/>
   <path class="fil2" d="M69.59 46.8l-4.64 -0.59 -0.01 0.22c0.55,0.39 1.2,0.43 1.83,0.62l2.34 0.33 0.48 0.65 0.57 0 -0.57 -1.23z"/>
   <path class="fil2" d="M59.81 48.29c0,0.31 -0.25,0.56 -0.56,0.56 -0.31,0 -0.56,-0.25 -0.56,-0.56 0,-0.31 0.25,-0.56 0.56,-0.56 0.31,0 0.56,0.25 0.56,0.56z"/>
   <path class="fil2" d="M61.16 49.16c0,0.39 -0.32,0.71 -0.71,0.71 -0.4,0 -0.72,-0.32 -0.72,-0.71 0,-0.4 0.32,-0.72 0.72,-0.72 0.39,0 0.71,0.32 0.71,0.72z"/>
   <path class="fil2" d="M69.28 49.87c0,0.4 -0.32,0.72 -0.71,0.72 -0.4,0 -0.72,-0.32 -0.72,-0.72 0,-0.39 0.32,-0.71 0.72,-0.71 0.39,0 0.71,0.32 0.71,0.71z"/>
   <path class="fil2" d="M70.2 48.03c0,0.3 -0.24,0.53 -0.54,0.53 -0.29,0 -0.53,-0.23 -0.53,-0.53 0,-0.29 0.24,-0.53 0.53,-0.53 0.3,0 0.54,0.24 0.54,0.53z"/>
   <path class="fil3" d="M57.09 36.25l0.28 -0.24c-0.28,-0.02 -0.56,-0.08 -0.82,-0.18 -0.14,-0.05 -0.29,-0.1 -0.41,-0.04 -0.12,0.06 -0.16,0.2 -0.19,0.33 -0.2,0.8 -1.75,7.75 -1.89,8.3 -0.19,0.73 -0.58,1.35 -0.88,2.04 -0.28,0.65 -0.58,1.34 -0.96,1.94 -0.06,0.11 -0.2,0.2 -0.33,0.29 -0.1,0.06 -0.19,0.12 -0.27,0.17 0.05,0.07 0.11,0.13 0.17,0.18 0.06,0.05 0.13,0.09 0.21,0.12l0.62 0.03c0.01,0 0.01,0 0.02,0 0.28,-0.07 0.48,-0.27 0.63,-0.51 0.16,-0.24 0.2,-0.55 0.38,-0.77 0.21,-0.26 0.52,-0.42 0.78,-0.63 0.16,-0.13 0.31,-0.25 0.49,-0.35 0.14,-0.07 0.29,-0.12 0.42,-0.19 0.21,-0.12 0.15,-0.21 0.14,-0.43 -0.01,-0.18 -0.01,-0.36 0.01,-0.57 0.02,-0.25 0.1,-0.62 0.19,-0.85 0.17,-0.42 0.34,-0.81 0.62,-1.17 0.63,-0.81 1.17,-1.89 1.36,-2.91 0.08,-0.45 0.1,-0.9 0.11,-1.35 0.02,-0.43 -0.05,-0.97 0.08,-1.39 0.08,-0.28 0.27,-0.56 0.38,-0.84 0.1,-0.22 0.19,-0.45 0.28,-0.68l-1.42 -0.3z"/>
   <path class="fil4" d="M55.63 46.55c0,-0.1 -0.19,-0.51 -0.14,-0.57 -0.73,0.94 -1.95,1.5 -2.45,2.61 -0.11,0.24 -0.35,0.37 -0.62,0.37 -0.06,0 -0.58,-0.24 -0.53,-0.27 -0.11,0.07 -0.22,0.13 -0.3,0.19 -0.17,0.13 -0.52,0.21 -0.62,0.42 -0.14,0.34 0.9,0.23 1.05,0.21 0.17,-0.02 0.35,-0.02 0.53,-0.04 0.3,-0.02 0.6,-0.1 0.89,-0.18 0.02,0 0.04,-0.01 0.06,-0.02 0.01,-0.01 0.02,-0.03 0.02,-0.05 0.16,-0.41 0.19,-0.88 0.37,-1.28 0.08,-0.17 0.4,-0.56 0.61,-0.57 0.09,0 0.16,0.05 0.21,0.12 0.02,0.04 0.05,0.09 0.06,0.13 0.04,0.14 0.04,0.29 0.03,0.43 -0.01,0.29 -0.03,0.57 -0.08,0.86 -0.01,0.09 -0.08,0.28 -0.06,0.41l0.22 0.01c0.1,-0.62 0.12,-1.21 0.5,-1.77 0.2,-0.29 0.28,-0.65 0.25,-1.01z"/>
   <path class="fil5" d="M57.45 36.8l0.27 -0.25c-0.28,-0.01 -0.56,-0.06 -0.83,-0.14 -0.14,-0.05 -0.29,-0.1 -0.41,-0.02 -0.11,0.06 -0.15,0.2 -0.17,0.33 -0.17,0.81 -1.41,7.82 -1.53,8.38 -0.16,0.74 -0.52,1.37 -0.78,2.07 -0.25,0.66 -0.53,1.37 -0.88,1.98 -0.06,0.11 -0.19,0.22 -0.32,0.31 -0.09,0.06 -0.18,0.12 -0.25,0.18 0.04,0.06 0.1,0.12 0.17,0.17 0.06,0.05 0.14,0.09 0.22,0.12l0.62 0c0,0 0.01,0 0.01,-0.01 0.28,-0.08 0.47,-0.29 0.61,-0.53 0.15,-0.25 0.17,-0.56 0.35,-0.79 0.2,-0.27 0.5,-0.44 0.74,-0.66 0.16,-0.13 0.31,-0.27 0.49,-0.37 0.13,-0.08 0.28,-0.13 0.41,-0.21 0.2,-0.13 0.14,-0.22 0.11,-0.44 -0.02,-0.18 -0.02,-0.36 -0.01,-0.57 0.01,-0.24 0.07,-0.63 0.15,-0.86 0.15,-0.42 0.31,-0.82 0.57,-1.19 0.59,-0.84 1.08,-1.94 1.23,-2.97 0.06,-0.45 0.06,-0.9 0.06,-1.35 -0.01,-0.43 -0.1,-0.96 0.01,-1.39 0.07,-0.29 0.25,-0.57 0.35,-0.86 0.08,-0.23 0.16,-0.46 0.24,-0.69l-1.43 -0.24z"/>
   <path class="fil6" d="M56.45 47.16c-0.01,-0.1 -0.21,-0.5 -0.17,-0.57 -0.34,0.49 -0.86,0.76 -1.3,1.17 -0.24,0.22 -0.47,0.57 -0.66,0.84 -0.12,0.16 -0.22,0.33 -0.32,0.5 -0.05,0.11 -0.14,0.38 -0.22,0.44 -0.16,0.11 -0.36,0.19 -0.56,0.16 -0.17,-0.03 -0.28,-0.16 -0.44,-0.21 -0.18,-0.06 -0.99,0.24 -0.77,0.49 0.08,0.1 0.34,0.11 0.46,0.13 0.26,0.05 0.53,0.07 0.79,0.08 0.21,0.01 0.57,0.07 0.75,-0.05 0.33,-0.21 0.47,-0.58 0.6,-0.93 0.11,-0.27 0.23,-0.53 0.42,-0.75 0.1,-0.1 0.28,-0.31 0.44,-0.3 0.39,0.03 -0.03,1.67 -0.08,2.02 0.08,0.01 0.17,0.02 0.25,0.04 0.12,-0.69 0.23,-1.44 0.6,-2.04 0.18,-0.3 0.25,-0.67 0.21,-1.02z"/>
   <path class="fil7" d="M69.76 34.31c-0.03,-0.22 -0.37,-1.6 -0.59,-2.06 -0.06,0.85 -0.24,1.67 -0.75,2.33 -1.73,2.26 -4.78,2.29 -7.38,2.41 -0.55,0 -1.3,0.1 -1.52,0.64 0.68,-0.01 6.39,-0.08 7.78,-0.08 0.35,0 1.37,0.19 1.68,0 0.23,-0.14 0.43,-0.35 0.57,-0.64 0.34,-0.77 0.34,-1.79 0.21,-2.6z"/>
   <path class="fil8" d="M61.04 36.99c2.6,-0.12 5.65,-0.15 7.38,-2.41 0.51,-0.66 0.69,-1.48 0.75,-2.33 -0.04,-0.09 -0.08,-0.14 -0.12,-0.14 0,0 -5.27,0.47 -5.27,0.47l-6.88 1.64 -1.3 1.86c0.04,0.03 0.07,0.06 0.11,0.09 0.74,0.54 1.5,1.05 2.26,1.56 0.22,0.15 0.46,0.28 0.69,0.41 0.11,0.07 0.19,0.15 0.3,0.12 0.21,-0.05 0.31,-0.63 0.49,-0.63 0,0 0.03,0 0.07,0 0.22,-0.54 0.97,-0.64 1.52,-0.64z"/>
   <path class="fil9" d="M41.51 48.08l0.31 -0.87 2.42 -0.28 -0.2 0.61 3.11 0.91c0,0 0.22,0.15 0.44,0.42 0.11,0.13 0.02,0.33 -0.15,0.33l-3 0.07c-0.12,-0.02 -0.24,-0.05 -0.36,-0.07l0 0 -0.02 0c-0.27,-0.05 -0.53,-0.1 -0.78,-0.16l-0.1 0.18 -1.53 0.03c-0.03,0 -0.05,-0.01 -0.08,-0.02 -0.14,-0.05 -0.06,-1.15 -0.06,-1.15z"/>
   <path class="fil10" d="M38.45 48.37l0.34 -0.86 2.44 -0.18 -0.23 0.6c0.26,0.25 0.78,0.67 1.56,0.9 0.63,0.19 1.2,0.25 1.54,0.22 0.23,0.03 0.35,0.18 0.47,0.33 0.1,0.14 -0.08,0.35 -0.26,0.34 0,0 -3,0.36 -4.13,-0.32l-0.11 0.17 -1.75 -0.54c-0.03,-0.01 0.13,-0.66 0.13,-0.66z"/>
   <path class="fil11" d="M45.28 37.63c0,-0.41 -0.01,-0.82 -0.08,-1.24 -0.15,-0.87 -1.11,-1.06 -1.84,-1.24 -1.08,-0.26 -2.16,-0.52 -3.23,-0.79 -1.41,-0.34 -2.81,-0.67 -4.21,-1.01l-5.73 0.12c1.66,-0.03 3.49,0.42 5.03,0.97 1.08,0.38 2.12,0.89 3,1.61 0.44,0.35 0.83,0.75 1.17,1.21 0.46,0.61 1.05,0.95 1.76,1.24 0.17,0.07 0.34,0.14 0.47,0.25 0.06,0.05 0.1,0.1 0.14,0.15 -0.22,3.1 -0.13,9.05 -0.13,9.05 0,0 0.38,-0.02 3.22,-0.03 0.02,-1.95 0.13,-3.9 0.25,-5.84 0.06,-0.86 0.14,-1.72 0.13,-2.58 -0.01,-0.64 0.05,-1.25 0.05,-1.87z"/>
   <path class="fil12" d="M44.69 36.49c-0.32,-0.71 -1.18,-0.73 -2.07,-0.97 -0.94,-0.26 -1.89,-0.52 -2.83,-0.78 -1.2,-0.33 -2.4,-0.67 -3.61,-1 0,0 -6.29,-0.36 -6.3,-0.36 -0.22,-0.01 -0.51,1.38 -0.52,1.53 -0.14,1.16 -0.75,2.71 0.21,3.34 0.4,0.29 1.6,0.49 3.03,0.6l6.8 0c0,0 0.7,0.05 1.05,0.05 -0.85,3.24 -2.06,8.83 -2.06,8.83 0,0 0.32,0.49 3.75,0.55 0.38,-1.72 0.82,-3.42 1.28,-5.12 0.35,-1.32 0.79,-2.64 1.03,-3.99 0.42,-0.79 0.58,-1.95 0.24,-2.68z"/>
   <path class="fil13" d="M35.76 32.24c-2.12,0.07 -4.16,1.08 -6.33,1.31 -0.09,1.42 -0.25,2.74 -0.44,3.94l7.19 0c-0.01,-1.93 -0.43,-3.54 -0.42,-4.57 0,-0.24 0,-0.47 0,-0.68z"/>
   <polygon class="fil14" points="35.12,35.12 63.74,35.12 63.74,33.29 35.12,33.29 "/>
   <polygon class="fil15" points="40.43,28.34 35.12,33.3 63.74,33.3 58.43,28.34 "/>
   <polygon class="fil16" points="49.96,29.18 49.3,31.71 60.79,31.71 58.22,29.25 "/>
   <polygon class="fil16" points="47.29,30.71 47.44,32.94 37.39,32.94 39.63,30.8 "/>
   <path class="fil17" d="M35.03 19.97c0,0 -0.56,1.26 -0.96,1.55 -0.4,0.29 -2.6,-0.46 -2.6,-0.46 0,0 0.8,-2.04 0.69,-2.36 -0.1,-0.33 0.56,-0.61 0.56,-0.61l2.31 1.88z"/>
   <path class="fil5" d="M32.71 18.52c0.21,0.19 0.35,0.51 0.6,0.65 0.14,0.08 0.12,0.13 0.6,0.49 0.13,0.1 0.31,0.14 0.48,0.19 0.35,0.11 0.71,0.21 1.06,0.32 0.09,0.03 0.19,0.05 0.28,0.05 0.2,-0.02 0.36,-0.19 0.47,-0.35 0.02,-0.03 0.04,-0.06 0.04,-0.09 0.03,-0.14 -0.15,-0.27 -0.09,-0.41 0.02,-0.06 0.09,-0.1 0.13,-0.16 0.06,-0.08 0.02,-0.19 -0.01,-0.29 0.09,0.02 0.15,-0.08 0.16,-0.16 0.02,-0.09 0.01,-0.18 0.05,-0.26 0.06,-0.12 0.22,-0.14 0.35,-0.2 0.05,-0.02 0.07,-0.08 0.05,-0.13 -0.07,-0.18 -0.16,-0.36 -0.28,-0.52 -0.11,-0.14 -0.24,-0.29 -0.22,-0.47 0.01,-0.11 0.08,-0.21 0.11,-0.31 0.05,-0.23 -0.08,-0.46 -0.12,-0.69 -0.04,-0.18 -0.03,-0.36 -0.05,-0.54 -0.01,-0.18 -0.06,-0.36 -0.19,-0.48 -0.38,-0.36 -0.55,-0.79 -1.02,-1.01 -0.83,-0.4 -1.85,-0.26 -2.66,0.18 -0.24,0.13 -0.48,0.3 -0.66,0.52 -0.14,0.18 -0.23,0.39 -0.31,0.6 -0.15,0.47 -0.19,0.98 -0.07,1.47 0.12,0.48 0.4,0.92 0.79,1.22 0.17,0.13 0.35,0.24 0.51,0.38z"/>
   <path class="fil5" d="M40.69 25.29c0,-0.05 0.12,-0.21 0.14,-0.26 0.09,-0.17 0.17,-0.34 0.26,-0.52 0.18,-0.32 0.46,-0.58 0.64,-0.9 0.06,-0.1 0.18,-0.44 0.3,-0.47 0.03,0 0.06,0.02 0.08,0.04 0.34,0.3 -0.05,0.7 -0.21,0.96 -0.07,0.1 -0.1,0.23 -0.16,0.33 0.29,-0.18 0.58,-0.36 0.86,-0.54 0.17,-0.11 0.99,-0.66 1.11,-0.46 0.06,0.11 -0.07,0.22 -0.14,0.28 -0.3,0.25 -0.61,0.49 -0.94,0.7 0.28,-0.18 0.57,-0.35 0.85,-0.52 0.13,-0.08 0.65,-0.36 0.76,-0.15 0.03,0.06 0.01,0.13 -0.04,0.18 -0.36,0.3 -0.78,0.53 -1.22,0.72 0.33,-0.16 0.65,-0.31 0.98,-0.47 0.08,-0.04 0.26,-0.11 0.35,-0.01 0.1,0.11 -0.04,0.25 -0.12,0.31 -0.35,0.24 -0.67,0.43 -1.05,0.62 0.31,-0.06 1.2,-0.53 1.11,-0.25 -0.03,0.08 -0.09,0.13 -0.16,0.18 -0.39,0.29 -0.62,0.46 -1.02,0.75 -0.16,0.12 -0.43,0.28 -0.62,0.36 -0.22,0.11 -0.39,0.19 -0.61,0.31 -0.3,0.16 -0.55,0.16 -0.88,0.23l-0.27 -1.42z"/>
   <path class="fil5" d="M43.41 28.52c0.03,-0.04 0.22,-0.09 0.27,-0.12 0.18,-0.07 0.35,-0.16 0.53,-0.23 0.34,-0.15 0.72,-0.17 1.06,-0.31 0.11,-0.04 0.42,-0.23 0.53,-0.17 0.03,0.01 0.04,0.04 0.04,0.07 0.07,0.44 -0.48,0.52 -0.77,0.62 -0.11,0.04 -0.22,0.11 -0.33,0.16 0.34,0.04 0.68,0.07 1.02,0.11 0.19,0.02 1.17,0.1 1.14,0.34 -0.01,0.12 -0.19,0.12 -0.28,0.12 -0.39,0.02 -0.78,0.01 -1.17,-0.04 0.33,0.05 0.66,0.09 0.98,0.13 0.15,0.02 0.74,0.13 0.69,0.36 -0.01,0.07 -0.07,0.11 -0.13,0.11 -0.48,0.02 -0.95,-0.07 -1.41,-0.2 0.35,0.09 0.7,0.17 1.06,0.25 0.09,0.02 0.26,0.08 0.28,0.21 0.01,0.15 -0.19,0.17 -0.29,0.17 -0.42,-0.03 -0.8,-0.08 -1.21,-0.18 0.28,0.16 1.27,0.34 1.02,0.51 -0.07,0.04 -0.15,0.04 -0.23,0.04 -0.49,-0.03 -0.78,-0.03 -1.26,-0.05 -0.2,-0.01 -0.52,-0.06 -0.71,-0.11 -0.24,-0.06 -0.43,-0.1 -0.67,-0.15 -0.34,-0.06 -0.53,-0.21 -0.84,-0.37l0.68 -1.27z"/>
   <path class="fil18" d="M31.97 19.08c-0.06,-0.12 -0.13,-0.23 -0.18,-0.35 -0.17,-0.45 -0.31,-0.9 -0.43,-1.35 -0.13,-0.47 -0.22,-0.95 -0.22,-1.44 0.01,-0.48 0.14,-0.97 0.42,-1.36 0.27,-0.38 0.68,-0.64 1.12,-0.79 0.43,-0.15 0.9,-0.18 1.37,-0.16 0.34,0.02 0.69,0.07 1.03,0.16 0.15,0.04 0.36,0.08 0.49,0.16 0.14,0.08 0.22,0.2 0.37,0.27 0.19,0.08 0.4,0.11 0.61,0.1 0.03,0 0.06,0 0.09,0.02 0.04,0.04 0.03,0.1 0.01,0.16 -0.38,0.92 -1.62,0.84 -1.96,1.8 -0.08,0.22 -0.1,0.46 -0.13,0.69 -0.03,0.23 -0.12,0.46 -0.13,0.68 -0.01,0.15 0.08,0.33 -0.08,0.43 -0.07,0.04 -0.35,-0.07 -0.35,-0.11 0,-0.2 -0.01,-0.41 -0.06,-0.61 -0.06,-0.19 -0.17,-0.38 -0.35,-0.48 -0.18,-0.11 -0.42,-0.1 -0.57,0.04 -0.18,0.17 -0.17,0.45 -0.13,0.69 0.06,0.35 0.25,0.74 0.63,0.82 -0.15,0.04 -0.23,0.19 -0.28,0.34 -0.01,0.04 -0.02,0.08 -0.05,0.1 -0.03,0.01 -0.06,0.01 -0.09,0.01 -0.49,-0.01 -0.69,0.15 -1,0.5 -0.02,-0.12 -0.08,-0.22 -0.13,-0.32z"/>
   <path class="fil19" d="M34.64 20.85c0.09,0.25 0.21,0.63 0.34,1.09 0.49,1.74 0.64,3.09 0.68,3.46 0.04,0.44 0.09,1.05 0.1,1.77 -1.27,-1.68 -2.41,-2.59 -3.04,-3.43 -0.82,-1.1 -1.37,-2 -1.42,-2.3 -0.06,-0.3 0.01,-0.62 0.31,-0.91 0.76,-0.73 2.43,0.58 2.43,0.58l0.6 -0.26z"/>
   <path class="fil13" d="M31.71 22.39c1.7,-1.25 3.07,0.6 3.83,1.91 0.46,0.81 0.93,1.63 1.62,2.26 0.28,-0.06 3.7,-1.35 3.54,-1.65 0.36,0.7 0.84,1.16 1.08,1.85 -1.02,0.97 -3.8,2.59 -4.84,3.01 -1.02,0.41 -3.43,-3.09 -4.45,-4.01 -0.95,-0.85 -2.07,-2.42 -0.78,-3.37z"/>
   <polygon class="fil20" points="31.97,19.64 34.64,20.85 34.11,22.01 31.47,20.68 "/>
   <path class="fil13" d="M35.35 24.36c-0.73,-1.45 -1.76,-2.41 -2.49,-2.98l-1.39 -0.7 -1.25 2.11 -0.46 1.9c-0.3,1.21 -0.41,2.45 -0.33,3.68 0.06,0.95 0.09,1.96 0.08,3.02 -0.01,0.74 -0.04,1.46 -0.08,2.16 2.17,-0.23 4.21,-1.24 6.33,-1.31 0.07,-4.56 0.52,-6.06 -0.41,-7.88z"/>
   <path class="fil21" d="M31.78 20c0,0 2.81,2.55 3.87,4.92 -1.85,-1.84 -2.59,-1.85 -2.59,-1.85l0 -1.3 -0.77 0.66 -0.82 -1.75 0.31 -0.68z"/>
   <path class="fil21" d="M42.64 27.96c0.23,-0.01 0.63,0 1.01,0.03 0.02,0.09 0.03,0.19 0.04,0.28 0.1,0.67 0.06,1.51 0.07,2.19 -0.63,0.02 -1.5,-0.17 -2.13,-0.1 -1.58,0.15 -5.8,-0.7 -6.18,-0.98 -1.13,-0.87 -2.26,-1.75 -3.43,-2.57 -0.64,-0.46 -1.83,-1.42 -1.75,-2.38 0.01,-0.08 0.02,-0.15 0.04,-0.22 0.43,-1.44 2.35,-0.86 3.21,-0.36 0.71,0.42 1.31,1 1.9,1.58 0.95,0.94 0.73,1.39 2.08,1.61 1.42,0.24 3.71,0.98 5.14,0.92z"/>
   <path class="fil22" d="M65.43 18.45c-0.35,0.36 -0.66,0.66 -0.92,0.91 -0.98,0.9 -1.36,1.09 -1.36,1.09 -0.02,0.05 0.46,0.82 0.17,1.93 1.12,-1.05 1.85,-2.43 2.11,-3.93z"/>
   <path class="fil3" d="M66.67 21.96c-0.12,-0.13 -0.25,-0.26 -0.36,-0.4 -0.25,-0.29 -0.45,-0.62 -0.57,-0.98 -0.25,-0.68 -0.33,-1.42 -0.3,-2.14 0,0 -0.01,0.01 -0.01,0.01 -0.26,1.5 -0.99,2.88 -2.11,3.93 -0.01,0.04 -0.02,0.09 -0.04,0.14 -0.38,0.66 -0.71,1.16 -0.24,1.47 0.37,0.24 1.78,-0.27 2.32,-0.48 0.13,-0.05 0.21,-0.09 0.21,-0.09 0.1,-0.04 0.22,-0.43 0.27,-0.53 0.08,-0.14 0.16,-0.31 0.29,-0.42 0.09,-0.08 0.18,-0.11 0.3,-0.13 0.11,-0.02 0.37,0.03 0.46,-0.03 0.15,-0.1 -0.11,-0.25 -0.22,-0.35z"/>
   <path class="fil23" d="M63.36 22.21l-0.34 0.17c-0.42,0.21 -0.75,0.57 -0.92,1l-1.84 4.63 -4.86 0.83 0.2 1.34 4.8 -0.02c0.46,-0.05 0.86,-0.32 1.08,-0.71l1.62 -1.84 0.26 -5.4z"/>
   <path class="fil5" d="M62.06 19.77c-0.09,0.02 -0.11,0.15 -0.08,0.24 0.04,0.08 0.11,0.16 0.13,0.25 0.03,0.09 0,0.2 0.02,0.29 0.02,0.22 0.23,0.37 0.44,0.41 0.21,0.03 0.43,-0.02 0.63,-0.09 0.78,-0.25 1.55,-0.66 2.01,-1.34 0.42,-0.61 0.55,-1.37 0.64,-2.1 0.05,-0.45 0.09,-0.92 -0.02,-1.36 -0.04,-0.13 -0.09,-0.25 -0.15,-0.37 -0.55,-1.09 -1.8,-1.22 -2.83,-0.84 -1,0.37 -1.6,1.51 -1.38,2.54 0.03,0.12 0.09,0.24 0.11,0.36 0.04,0.26 -0.11,0.5 -0.22,0.73 -0.08,0.15 -0.31,0.57 -0.09,0.68 0.12,0.06 0.25,0 0.36,0.1 0.1,0.09 0.15,0.24 0.15,0.37 0,0.02 0,0.04 0.01,0.06 0.02,0.05 0.23,0.07 0.27,0.07z"/>
   <path class="fil16" d="M62.88 23.27c0,0 0.66,0.65 2.38,0.05 -0.15,3.51 -0.39,5.12 -0.39,5.12l-2.06 0.69 -0.71 -2.28 0.78 -3.58z"/>
   <path class="fil24" d="M68.62 24.44l-0.47 -0.47 -2.67 -0.19c0,0 -1.93,2.69 -2.67,2.94 0.01,-0.01 -0.01,-0.32 -0.01,-0.35 0,-0.13 0,-0.25 0,-0.38 0,-0.25 0.01,-0.5 0.01,-0.76 0.02,-0.46 0.06,-0.93 0.12,-1.4 0.03,-0.22 0.07,-0.45 0.12,-0.68 0.02,-0.1 0.04,-0.22 0.07,-0.32 0.03,-0.06 0.06,-0.11 0.08,-0.17 0.02,-0.05 0.05,-0.1 0.06,-0.15 0,0 -0.01,0 -0.02,0.01 -0.04,0.04 -0.07,0.07 -0.09,0.12 -0.03,0.05 -0.06,0.1 -0.09,0.16 -0.05,0.13 -0.1,0.26 -0.15,0.39 -0.09,0.22 -0.17,0.45 -0.25,0.68 -0.15,0.45 -0.28,0.92 -0.43,1.37 -0.14,0.41 -0.27,0.83 -0.4,1.24 -0.06,0.19 -0.17,0.43 -0.17,0.63 0,0.27 2.12,5.47 2.12,5.47 0,0 1.74,-0.11 5.27,-0.47 -0.56,-1.86 -0.43,-7.67 -0.43,-7.67z"/>
   <path class="fil25" d="M67.3 18.51c0.05,-0.31 0.01,-0.62 -0.05,-0.92 -0.14,-0.8 -0.53,-1.69 -1.11,-2.27 -0.63,-0.63 -1.56,-0.95 -2.44,-0.85 -0.53,0.06 -1.03,0.27 -1.46,0.59 -0.79,0.61 -1.01,1.38 -0.91,2.34 0.26,-0.01 0.53,0 0.79,0.03 -0.04,-0.23 -0.01,-0.48 0.07,-0.7 0.08,0.26 0.14,0.53 0.19,0.8 0.27,0.02 0.55,0.09 0.81,0.21 0.01,0.01 0.15,-0.47 0.28,-0.45 0.14,0.02 0.34,0.47 0.4,0.59 0.22,0.44 0.34,0.93 0.4,1.42 0.08,0.74 0.04,1.6 -0.06,2.24 0.36,-0.12 2.84,-1.13 3.09,-3.03z"/>
   <path class="fil3" d="M59.09 30.59l-1.27 -0.27 -1.09 -0.2c-0.11,-0.02 -0.22,-0.01 -0.32,0.03 -0.36,0.15 -0.74,0.23 -1.09,0.42 -0.23,0.14 -0.34,0.22 -0.05,0.39 0.18,0.11 0.39,0.1 0.57,-0.02 -0.07,0.05 -0.16,0.11 -0.16,0.2 0,0.18 0.19,0.13 0.3,0.11 0.23,-0.04 0.46,-0.08 0.69,-0.11 0.14,-0.03 0.29,0 0.41,0.06l0.9 0.5c0.11,0.06 0.24,0.09 0.36,0.08l0.84 -0.02 -0.09 -1.17z"/>
   <path class="fil3" d="M53.26 29.46c-0.08,0.11 -0.13,0.26 -0.19,0.4 -0.05,0.14 -0.14,0.25 -0.17,0.4 -0.02,0.1 0.05,0.2 0.16,0.16 0.05,-0.01 0.08,-0.04 0.12,-0.07 0.04,0.15 0.15,0.09 0.22,0 0.13,-0.2 0.17,-0.42 0.4,-0.44 0.16,-0.02 0.34,0 0.5,-0.01 0.29,0 0.57,0 0.85,0 -0.01,0 -0.09,-0.34 -0.09,-0.37 -0.05,-0.19 -0.09,-0.34 -0.31,-0.34 -0.28,0 -0.55,0.01 -0.83,0.01 -0.13,0 -0.27,0.01 -0.4,0.05 -0.11,0.04 -0.2,0.12 -0.26,0.21z"/>
   <path class="fil5" d="M54.19 29.37c0.05,0.01 0.1,0.03 0.15,0.04 0.04,0.01 0.11,0 0.15,0.02 -0.05,-0.02 -0.09,0 -0.14,0.01 -0.09,0.02 -0.2,0.01 -0.3,0.02 -0.1,0.01 -0.45,0.14 -0.35,0.29 0.09,0.14 0.31,0.11 0.42,0.09 0.21,-0.03 0.44,0.09 0.65,0.16 0.55,0.16 1.07,-0.04 1.58,-0.16l-0.38 -0.7 -1.74 -0.49c-0.16,0.05 -0.33,0.11 -0.5,0.16 -0.23,0.08 -0.43,0.16 -0.63,0.31 -0.08,0.06 -0.12,0.14 -0.16,0.24 -0.05,0.11 -0.11,0.22 -0.17,0.33 -0.04,0.09 -0.24,0.34 -0.11,0.45 0.07,0.06 0.19,-0.02 0.23,-0.07 0.12,-0.16 0.22,-0.46 0.38,-0.56 0.24,-0.15 0.63,-0.18 0.92,-0.14z"/>
   <path class="fil26" d="M66.73 21.97c-0.63,-0.12 -1.32,0.83 -1.47,1.35 -0.2,0.69 -0.27,1.44 -0.42,2.14 -0.19,0.83 -0.49,1.63 -0.6,2.48 -0.04,0.32 -0.04,0.64 -0.13,0.96 -0.15,0.48 -0.51,0.53 -0.96,0.74 -1.17,0.54 -4.5,0.8 -4.55,0.83l0.51 1.57c0.08,-0.03 5.97,0.61 6.95,-0.9 0.22,-0.33 0.38,-0.74 0.55,-1.09 0.31,-0.65 0.62,-1.3 0.92,-1.95 0.15,-0.31 0.3,-0.62 0.45,-0.93 0.09,-0.21 0.25,-0.8 0.44,-0.93 0.04,-0.03 0.08,-0.06 0.08,-0.07 0.66,-1.9 -0.62,-3.98 -1.77,-4.2z"/>
   <path class="fil27" d="M48.38 31.08l-0.01 0.13c0,0.05 0.04,0.09 0.09,0.09l0.12 0.01 0.02 -0.21 -0.22 -0.02z"/>
   <path class="fil19" d="M48.48 30.9c-0.05,0 -0.09,0.04 -0.09,0.08l-0.01 0.1 0.22 0.02 0.01 -0.19 -0.13 -0.01z"/>
   <polygon class="fil28" points="52.55,31.53 52.57,31.53 52.57,31.52 "/>
   <polygon class="fil29" points="52.58,31.12 52.59,31.13 52.6,31.13 "/>
   <polygon class="fil28" points="49.09,31.12 48.78,31.11 48.77,31.32 48.99,31.33 52.55,31.53 52.57,31.31 "/>
   <polygon class="fil29" points="49.01,30.93 48.79,30.92 48.78,31.11 49.09,31.12 52.57,31.31 52.58,31.12 "/>
   <polygon class="fil30" points="48.64,30.91 48.61,30.91 48.6,31.1 48.63,31.1 48.78,31.11 48.79,30.92 "/>
   <polygon class="fil31" points="48.63,31.1 48.6,31.1 48.58,31.31 48.62,31.31 48.77,31.32 48.78,31.11 "/>
   <polygon class="fil32" points="52.78,31.32 52.78,31.47 53.17,31.36 53.13,31.34 "/>
   <polygon class="fil33" points="52.78,31.32 53.13,31.34 52.79,31.21 "/>
   <polygon class="fil34" points="52.58,31.31 52.57,31.31 52.55,31.53 52.57,31.52 52.78,31.47 52.78,31.32 "/>
   <polygon class="fil35" points="52.59,31.13 52.58,31.12 52.57,31.31 52.58,31.31 52.78,31.32 52.79,31.21 "/>
   <path class="fil30" d="M53.36 30.12c-0.08,0.01 -0.21,0.02 -0.44,0.03 0,-0.1 0.01,-0.2 0.02,-0.3 0.22,0.05 0.35,0.08 0.43,0.1l-0.01 0.17z"/>
   <polygon class="fil30" points="49.12,29.46 48.66,29.43 48.85,30 49.18,30.02 "/>
   <path class="fil10" d="M50.51 30.13l0.04 -0.58c0.06,0 0.12,0.01 0.17,0.01l-0.04 0.57c-0.05,0 -0.11,0 -0.17,0z"/>
   <path class="fil33" d="M50.93 29.59c0.6,0.06 1.17,0.15 2.02,0.25 0,0.11 -0.01,0.22 -0.02,0.33 -0.86,-0.01 -1.44,-0.01 -2.03,-0.03l0.03 -0.55z"/>
   <path class="fil33" d="M49.2 29.52c0,-0.01 -0.02,-0.1 0.09,-0.18 0.13,-0.08 0.35,-0.1 0.67,-0.07 0.63,0.07 1.43,0.11 1.44,0.11 0,0 -0.15,0.24 -0.47,0.1 -0.22,-0.01 -1.18,-0.04 -1.19,-0.04 0,0 -0.07,-0.01 -0.12,0.02 -0.02,0.02 -0.04,0.04 -0.01,0.11 0.02,0.06 0,0.09 -0.01,0.1 -0.08,0.05 -0.32,-0.09 -0.39,-0.14l-0.01 0 0 -0.01z"/>
   <path class="fil30" d="M50.68 30.13l0.04 -0.57c0.07,0.01 0.14,0.02 0.21,0.03l-0.03 0.55c-0.07,0 -0.14,-0.01 -0.22,-0.01z"/>
   <path class="fil33" d="M49.04 30.02c0.02,-0.19 0.03,-0.38 0.04,-0.58 0.59,0.03 1.05,0.06 1.47,0.11l-0.04 0.58c-0.42,-0.02 -0.88,-0.05 -1.47,-0.11z"/>
   <path class="fil10" d="M53.37 29.95c0.03,0.01 0.07,0.02 0.1,0.03 0.06,0.02 0.1,0.05 0.14,0.07 -0.04,0.02 -0.08,0.03 -0.13,0.05 -0.05,0.01 -0.09,0.02 -0.12,0.02 0,-0.06 0.01,-0.11 0.01,-0.17z"/>
   <path class="fil30" d="M45.45 32.17c0.08,-0.02 0.21,-0.04 0.43,-0.09 0.01,0.1 0.01,0.2 0.02,0.3 -0.23,-0.02 -0.36,-0.03 -0.44,-0.04l-0.01 -0.17z"/>
   <polygon class="fil30" points="49.71,32.31 50.17,32.29 49.91,31.75 49.58,31.76 "/>
   <path class="fil10" d="M48.26 31.82l0.03 0.58c-0.06,0 -0.12,0 -0.17,0l-0.03 -0.57c0.05,0 0.11,-0.01 0.17,-0.01z"/>
   <path class="fil33" d="M47.91 32.4c-0.6,0.01 -1.18,0 -2.03,0 0,-0.11 -0.01,-0.22 -0.01,-0.33 0.84,-0.09 1.42,-0.16 2.01,-0.22l0.03 0.55z"/>
   <path class="fil33" d="M49.63 32.26c0,0.01 0.03,0.1 -0.08,0.19 -0.11,0.09 -0.33,0.14 -0.64,0.14 -0.64,0.02 -1.43,0.08 -1.44,0.08 0,0 0.12,-0.26 0.45,-0.17 0.22,-0.01 1.18,-0.09 1.19,-0.09 0,0 0.07,-0.01 0.1,-0.04 0.02,-0.02 0.05,-0.05 0.01,-0.12 -0.03,-0.05 -0.02,-0.08 0,-0.09 0.06,-0.05 0.32,0.05 0.4,0.09l0.01 0 0 0.01z"/>
   <path class="fil30" d="M48.09 31.83l0.03 0.57c-0.07,0 -0.14,0 -0.21,0l-0.03 -0.55c0.07,0 0.14,-0.01 0.21,-0.02z"/>
   <path class="fil33" d="M49.72 31.74c0.01,0.2 0.02,0.39 0.03,0.58 -0.58,0.05 -1.04,0.07 -1.46,0.08l-0.03 -0.58c0.42,-0.03 0.87,-0.06 1.46,-0.08z"/>
   <path class="fil10" d="M45.46 32.34c-0.03,0 -0.07,-0.01 -0.11,-0.02 -0.05,-0.01 -0.1,-0.03 -0.14,-0.05 0.04,-0.02 0.08,-0.05 0.12,-0.06 0.05,-0.02 0.09,-0.03 0.12,-0.04 0,0.06 0,0.11 0.01,0.17z"/>
   <path class="fil36" d="M48.13 7.73l-5.46 0c-1.28,0 -2.33,0.92 -2.33,2.2l0 1.82c0,0.69 0.31,1.32 0.8,1.74 0.16,0.15 0.2,0.39 0.09,0.58l-1.01 3.28c0,0 3.42,-3.27 3.68,-3.27l4.23 0c1.28,0 2.33,-1.05 2.33,-2.33l0 -1.82c0,-1.28 -1.05,-2.2 -2.33,-2.2z"/>
   <path class="fil37" d="M51.04 9.26l5.46 0c1.28,0 2.33,0.92 2.33,2.2l0 1.82c0,0.7 -0.31,1.32 -0.8,1.74 -0.16,0.15 -0.2,0.39 -0.09,0.58l0.61 3.24c0,0 -3.02,-3.23 -3.28,-3.23l-4.23 0c-1.28,0 -2.33,-1.05 -2.33,-2.33l0 -1.82c0,-1.28 1.05,-2.2 2.33,-2.2z"/>
   <path class="fil30" d="M50.79 12.54l-5.46 0c-1.27,0 -2.32,0.92 -2.32,2.2l0 1.82c0,0.69 0.31,1.32 0.79,1.74 0.17,0.15 0.2,0.39 0.1,0.58l-1.47 3.69c0,0 3.87,-3.68 4.13,-3.68l4.23 0c1.28,0 2.33,-1.05 2.33,-2.33l0 -1.82c0,-1.28 -1.05,-2.2 -2.33,-2.2z"/>
   <path class="fil21" d="M44.53 14.55l7 0c0.15,0 0.28,-0.13 0.28,-0.28 0,-0.15 -0.13,-0.28 -0.28,-0.28l-7 0c-0.15,0 -0.28,0.13 -0.28,0.28 0,0.15 0.13,0.28 0.28,0.28z"/>
   <path class="fil21" d="M51.53 15.38l-7 0c-0.15,0 -0.28,0.12 -0.28,0.28 0,0.15 0.13,0.27 0.28,0.27l7 0c0.15,0 0.28,-0.12 0.28,-0.27 0,-0.16 -0.13,-0.28 -0.28,-0.28z"/>
   <path class="fil21" d="M51.53 16.77l-7 0c-0.15,0 -0.28,0.12 -0.28,0.27 0,0.16 0.13,0.28 0.28,0.28l7 0c0.15,0 0.28,-0.12 0.28,-0.28 0,-0.15 -0.13,-0.27 -0.28,-0.27z"/>
  </g>
 </g>
</svg>
